# xmcd
#
# Track frame offsets:
# 150
# 13753
# 28299
# 44922
# 60572
# 75230
# 91662
# 103656
# 119596
# 138819
# 156541
# 170329
# 184313
# 197251
# 212799
# 227320
# 249873
# 264335
# 286225
# 299642
#
# Disc length: 4174 seconds
#
#
# Revision: 0
# Processed by: cddbd v1.5.2PL0 Copyright (c) Steve Scherf et al.
# Submitted via: FreeRIP 2.96 
#
DISCID=17104c14
DTITLE=O melhor dos 4 - O melhor dos 4
DYEAR=2007
DGENRE=Country
TTITLE0=Você não vai me ver chorar - Ataíde and Alexandre
TTITLE1=Amor que fica - Zezé di Camargo and Luciano
TTITLE2=Vida de Cão - Rio Negro and Solimões
TTITLE3=Vida Pelo Avesso - Chitãozinho and Chororó
TTITLE4=Come quieto - Ataíde and Alexandre
TTITLE5=Diz pro meu olhar - Zezé di Camargo and Luciano
TTITLE6=Agito do meu povo  - Rio Negro and Solimões
TTITLE7=Vida marvada - Chitãozinho and Chororó
TTITLE8=Recomeçar - Ataíde and Alexandre
TTITLE9=A saudade é uma pedra - Zezé di Camargo and Luciano
TTITLE10=La bella luna - Rio Negro and Solimões
TTITLE11=É amor, é paixão - Chitãozinho and Chororó
TTITLE12=Ficando com as erradas - Ataíde and Alexandre
TTITLE13=Tempo Perdido - Zezé di Camargo and Luciano
TTITLE14=Eu sem você - Rio Negro and Solimões
TTITLE15=Arrasta uma cadeira - Chitãozinho and Chororó
TTITLE16=Na cara do meu coração - Ataíde and Alexandre
TTITLE17=Foi só engano - Zezé di Camargo and Luciano
TTITLE18=Nem com reza - Rio Negro and Solimões
TTITLE19=Você perto de mim - Chitãozinho and Chororó
EXTD=
EXTT0=
EXTT1=
EXTT2=
EXTT3=
EXTT4=
EXTT5=
EXTT6=
EXTT7=
EXTT8=
EXTT9=
EXTT10=
EXTT11=
EXTT12=
EXTT13=
EXTT14=
EXTT15=
EXTT16=
EXTT17=
EXTT18=
EXTT19=
PLAYORDER=
